<svg width="484" height="429" viewBox="0 0 484 429" fill="none" xmlns="http://www.w3.org/2000/svg">
<path d="M483.735 54.7627L456.354 127.779L355.956 173.414L374.21 127.779V91.2705L346.829 100.397L264.686 301.193L319.447 292.066L337.702 228.177L438.1 191.669L465.48 209.923L410.719 374.21L301.193 428.973L346.829 310.32L301.193 383.337L109.524 428.973L138.533 327.44L126.527 331.256L109.525 392.465L0 428.974L92.9326 91.2715L200.796 63.8906L176.513 151.306L190.09 146.991L219.05 45.6357L447.227 0L483.735 54.7627ZM136.77 183.087L127.779 219.051L91.2705 228.178L73.0166 292.067L109.525 282.939L100.397 319.448L114.525 315.916L144.552 306.374L154.33 272.152L191.669 264.686L209.923 200.796L172.584 208.263L184.071 168.057L136.77 183.087ZM410.719 63.8906C405.678 63.8906 401.592 67.9768 401.592 73.0176C401.592 78.0582 405.678 82.1445 410.719 82.1445C415.759 82.1444 419.846 78.0581 419.846 73.0176C419.846 67.9769 415.759 63.8907 410.719 63.8906Z" fill="#009AFF"/>
</svg>
